# xmcd CD database file
#
# Track frame offsets:
#	150
#	20571
#	41358
#	62215
#	84072
#	105865
#	126982
#	147296
#	166481
#	187665
#	207211
#	227641
#
# Disc length: 3301 seconds
#
# Revision: 0
# Processed by: cddbd v1.5.1PL0 Copyright (c) Steve Scherf et al.
# Submitted via: CDex 1.51
#
DISCID=910ce30c
DTITLE=Mercadonegro - Salsa Pa'l Mundo Entero
DYEAR=1900
DGENRE=Salsa
TTITLE0=La Bendición
TTITLE1=La Guarachera De Cuba
TTITLE2=Jamás
TTITLE3=Llegó La Hora
TTITLE4=A Los Orishas
TTITLE5=Pa'l Callao
TTITLE6=Por Una Noche Contigo
TTITLE7=La Malanga
TTITLE8=Yo Soy El Son
TTITLE9=El Negro
TTITLE10=Tú Me Gustas
TTITLE11=Aquí Está Mercadonegro
EXTD=
EXTT0=
EXTT1=
EXTT2=
EXTT3=
EXTT4=
EXTT5=
EXTT6=
EXTT7=
EXTT8=
EXTT9=
EXTT10=
EXTT11=
PLAYORDER=
